# xmcd CD database file
#
# Track frame offsets:
#	150
#	19577
#	31982
#	46595
#	62882
#	84372
#	109360
#	130657
#	161577
#	177310
#	191682
#
# Disc length: 3001 seconds
#
# Revision: 0
# Processed by: cddbd v1.5.2PL0 Copyright (c) Steve Scherf et al.
# Submitted via: CDex 1.70beta2
#
DISCID=870bb70b
DTITLE=McFarlane, Will - Axe To The Root
DYEAR=1998
DGENRE=Blues
TTITLE0=Axe To The Root
TTITLE1=This New Love
TTITLE2=You're Gonna Need The Lord (On Your Side)
TTITLE3=A Little A Lot
TTITLE4=I Am Listening
TTITLE5=Start Right Now
TTITLE6=Be There In That Number
TTITLE7=Back In The Circle (Blues For The Prodigal)
TTITLE8=Lay My Burden Down
TTITLE9=I Know
TTITLE10=Amazing Grace
EXTD=YEAR: 1998
EXTT0=
EXTT1=
EXTT2=
EXTT3=
EXTT4=
EXTT5=
EXTT6=
EXTT7=
EXTT8=
EXTT9=
EXTT10=
PLAYORDER=
